# Blender 3.3.0
# www.blender.org
o Cube
v 0.741511 1.000000 -0.741511
v 0.758720 -0.449806 -0.691085
v 0.741511 1.000000 0.741511
v 1.000000 -1.000000 2.235478
v -0.741511 1.000000 -0.741511
v -0.758720 -0.758720 -1.000000
v -1.000000 -1.000000 2.235478
v 1.000000 1.000000 1.000000
v -1.000000 1.000000 1.000000
v 0.758720 0.449806 -0.691085
v -0.758720 0.758720 -1.000000
v 0.741511 1.399581 0.741511
v 0.741511 1.399581 -0.741511
v -0.741511 1.399581 -0.741511
v -0.239833 1.000000 0.741511
v -0.741511 1.000000 0.239833
v -0.741511 1.399581 0.239833
v -0.239833 1.399581 0.741511
v 1.000000 -1.000000 -1.000000
v -1.000000 -1.000000 -1.000000
v 1.000000 1.000000 -1.000000
v -1.000000 1.000000 -1.000000
v 0.758720 -0.449806 0.415847
v -0.758720 -0.758720 0.724762
v 0.758720 0.449806 0.415847
v -0.758720 0.758720 0.724762
v 0.758720 0.758720 -1.000000
v 0.758720 -0.758720 -1.000000
v 0.758720 0.758720 0.724762
v 0.758720 -0.758720 0.724762
v 1.000000 0.449806 -0.691085
v 1.000000 -0.449806 -0.691085
v 1.000000 0.449806 0.415847
v 1.000000 -0.449806 0.415847
vn -0.0000 1.0000 -0.0000
vn -0.0000 0.5255 0.8508
vn -1.0000 -0.0000 -0.0000
vn -0.0000 -1.0000 -0.0000
vn 1.0000 -0.0000 -0.0000
vn -0.0000 -0.0000 -1.0000
vn -0.0000 -0.0000 1.0000
vn -0.7071 -0.0000 0.7071
s 0
f 16//1 22//1 9//1
f 8//2 7//2 4//2
f 9//3 20//3 7//3
f 19//4 7//4 20//4
f 19//5 34//5 4//5
f 6//1 30//1 28//1
f 16//3 14//3 5//3
f 3//1 21//1 1//1
f 18//1 13//1 17//1
f 1//1 22//1 5//1
f 5//6 13//6 1//6
f 1//5 12//5 3//5
f 3//7 18//7 15//7
f 15//1 16//1 9//1
f 16//8 18//8 17//8
f 15//1 8//1 3//1
f 28//6 20//6 6//6
f 27//6 19//6 28//6
f 6//6 22//6 11//6
f 11//6 21//6 27//6
f 26//6 30//6 24//6
f 27//4 26//4 11//4
f 23//1 32//1 2//1
f 11//5 24//5 6//5
f 10//3 28//3 2//3
f 23//3 29//3 25//3
f 2//3 30//3 23//3
f 25//3 27//3 10//3
f 33//5 21//5 8//5
f 2//7 31//7 10//7
f 10//4 33//4 25//4
f 25//6 34//6 23//6
f 21//5 32//5 19//5
f 34//5 8//5 4//5
f 16//1 5//1 22//1
f 8//2 9//2 7//2
f 9//3 22//3 20//3
f 19//4 4//4 7//4
f 19//5 32//5 34//5
f 6//1 24//1 30//1
f 16//3 17//3 14//3
f 3//1 8//1 21//1
f 12//1 13//1 18//1
f 13//1 14//1 17//1
f 1//1 21//1 22//1
f 5//6 14//6 13//6
f 1//5 13//5 12//5
f 3//7 12//7 18//7
f 16//8 15//8 18//8
f 15//1 9//1 8//1
f 28//6 19//6 20//6
f 27//6 21//6 19//6
f 6//6 20//6 22//6
f 11//6 22//6 21//6
f 26//6 29//6 30//6
f 27//4 29//4 26//4
f 23//1 34//1 32//1
f 11//5 26//5 24//5
f 10//3 27//3 28//3
f 23//3 30//3 29//3
f 2//3 28//3 30//3
f 25//3 29//3 27//3
f 33//5 31//5 21//5
f 2//7 32//7 31//7
f 10//4 31//4 33//4
f 25//6 33//6 34//6
f 21//5 31//5 32//5
f 34//5 33//5 8//5
o Cube.001
v 1.515273 -0.605346 0.605346
v 1.515273 0.605346 0.605346
v 1.515273 -0.605346 -0.605346
v 1.515273 0.605346 -0.605346
v 2.725965 -0.605346 0.605346
v 2.725965 -0.605346 -0.605346
v 2.725965 -0.253862 0.605346
v 1.866757 0.605346 0.605346
v 2.696688 -0.031482 0.605346
v 2.610852 0.175742 0.605346
v 2.474308 0.353690 0.605346
v 2.296361 0.490234 0.605346
v 2.089136 0.576069 0.605346
v 1.866757 0.605346 -0.605346
v 2.725965 -0.253862 -0.605346
v 2.089136 0.576069 -0.605346
v 2.296361 0.490234 -0.605346
v 2.474308 0.353690 -0.605346
v 2.610852 0.175742 -0.605346
v 2.696688 -0.031482 -0.605346
vn -1.0000 -0.0000 -0.0000
vn -0.0000 -0.0000 1.0000
vn -0.0000 -0.0000 -1.0000
vn -0.0000 -1.0000 -0.0000
vn 1.0000 -0.0000 -0.0000
vn 0.1305 0.9914 -0.0000
vn 0.3827 0.9239 -0.0000
vn 0.6088 0.7934 -0.0000
vn 0.7934 0.6088 -0.0000
vn 0.9239 0.3827 -0.0000
vn 0.9914 0.1305 -0.0000
vn -0.0000 1.0000 -0.0000
s 0
f 36//9 37//9 35//9
f 42//10 36//10 35//10
f 54//11 49//11 37//11
f 40//12 35//12 37//12
f 49//13 39//13 40//13
f 42//14 50//14 48//14
f 47//15 51//15 50//15
f 46//16 52//16 51//16
f 45//17 53//17 52//17
f 44//18 54//18 53//18
f 43//19 49//19 54//19
f 38//20 42//20 48//20
f 36//9 38//9 37//9
f 35//10 39//10 41//10
f 41//10 43//10 35//10
f 43//10 44//10 35//10
f 44//10 45//10 35//10
f 45//10 46//10 35//10
f 46//10 47//10 35//10
f 47//10 42//10 35//10
f 40//11 37//11 49//11
f 37//11 38//11 48//11
f 50//11 37//11 48//11
f 50//11 51//11 37//11
f 51//11 52//11 37//11
f 52//11 53//11 37//11
f 53//11 54//11 37//11
f 40//12 39//12 35//12
f 49//13 41//13 39//13
f 42//14 47//14 50//14
f 47//15 46//15 51//15
f 46//16 45//16 52//16
f 45//17 44//17 53//17
f 44//18 43//18 54//18
f 43//19 41//19 49//19
f 38//20 36//20 42//20
o Cube.002
v -3.000000 1.000000 1.000000
v -3.000000 1.000000 -1.000000
v -1.000000 1.000000 1.000000
v -1.000000 1.000000 -1.000000
v -3.000000 0.250000 1.000000
v -3.000000 0.500000 1.000000
v -3.000000 0.750000 1.000000
v -3.000000 0.750000 -1.000000
v -3.000000 0.250000 -1.000000
v -1.000000 0.750000 -1.000000
v -1.000000 0.250000 -1.000000
v -1.000000 0.750000 1.000000
v -1.000000 0.500000 1.000000
v -1.000000 0.250000 1.000000
v -3.500000 0.000000 1.000000
v -3.500000 0.250000 1.000000
v -3.500000 0.500000 1.000000
v -3.500000 0.750000 1.000000
v -3.500000 0.750000 -1.000000
v -3.500000 0.500000 -1.000000
v -4.000000 -0.250000 1.000000
v -4.000000 0.000000 1.000000
v -4.000000 0.250000 1.000000
v -4.000000 0.500000 1.000000
v -4.000000 0.500000 -1.000000
v -4.000000 0.250000 -1.000000
v -4.500000 -0.500000 1.000000
v -4.500000 -0.250000 1.000000
v -4.500000 0.000000 1.000000
v -4.500000 0.250000 1.000000
v -4.500000 0.250000 -1.000000
v -4.500000 0.000000 -1.000000
v -5.000000 -0.750000 1.000000
v -5.000000 -0.500000 1.000000
v -5.000000 -0.250000 1.000000
v -5.000000 0.000000 1.000000
v -5.000000 0.000000 -1.000000
v -5.000000 -0.250000 -1.000000
v -5.500000 -0.750000 1.000000
v -5.500000 -0.500000 1.000000
v -5.500000 -0.250000 1.000000
v -5.500000 -0.250000 -1.000000
v -5.500000 -0.500000 -1.000000
v -5.500000 -1.000000 -1.000000
v -5.500000 -1.000000 1.000000
v -6.000000 -0.750000 -1.000000
v -6.000000 -0.750000 1.000000
v -6.000000 -0.500000 1.000000
v -6.000000 -0.500000 -1.000000
v -6.500000 -1.000000 -1.000000
v -6.500000 -1.000000 1.000000
v -6.500000 -0.750000 -1.000000
v -6.500000 -0.750000 1.000000
vn -1.0000 -0.0000 -0.0000
vn -0.0000 -0.0000 -1.0000
vn 1.0000 -0.0000 -0.0000
vn -0.0000 -0.0000 1.0000
vn -0.0000 1.0000 -0.0000
vn -0.0000 -1.0000 -0.0000
vn 0.4472 -0.8944 -0.0000
s 0
f 55//21 62//21 61//21
f 56//22 64//22 62//22
f 58//23 66//23 64//23
f 57//24 61//24 66//24
f 56//25 57//25 58//25
f 67//24 59//24 68//24
f 66//24 60//24 67//24
f 64//23 67//23 65//23
f 62//22 65//22 63//22
f 62//22 74//22 73//22
f 61//24 71//24 60//24
f 72//21 74//21 71//21
f 62//25 72//25 61//25
f 60//24 70//24 59//24
f 80//25 84//25 77//25
f 78//21 80//21 77//21
f 74//25 78//25 71//25
f 70//24 76//24 69//24
f 71//24 77//24 70//24
f 86//25 90//25 83//25
f 84//21 86//21 83//21
f 76//24 82//24 75//24
f 77//24 83//24 76//24
f 89//24 94//24 88//24
f 90//21 92//21 89//21
f 82//24 88//24 81//24
f 83//24 89//24 82//24
f 94//24 101//24 93//24
f 95//21 97//21 94//21
f 92//25 95//25 89//25
f 88//24 93//24 87//24
f 99//26 104//26 98//26
f 102//21 100//21 101//21
f 97//25 102//25 94//25
f 107//21 104//21 105//21
f 100//25 107//25 101//25
f 100//22 104//22 106//22
f 101//24 105//24 99//24
f 86//22 80//22 63//22
f 101//24 99//24 93//24
f 93//24 99//24 87//24
f 88//24 87//24 81//24
f 82//24 81//24 75//24
f 76//24 75//24 69//24
f 70//24 69//24 59//24
f 63//27 69//27 75//27
f 59//26 65//26 68//26
f 67//23 68//23 65//23
f 55//21 56//21 62//21
f 56//22 58//22 64//22
f 58//23 57//23 66//23
f 57//24 55//24 61//24
f 56//25 55//25 57//25
f 67//24 60//24 59//24
f 66//24 61//24 60//24
f 64//23 66//23 67//23
f 62//22 64//22 65//22
f 62//22 63//22 74//22
f 61//24 72//24 71//24
f 72//21 73//21 74//21
f 62//25 73//25 72//25
f 60//24 71//24 70//24
f 80//25 85//25 84//25
f 78//21 79//21 80//21
f 74//25 79//25 78//25
f 70//24 77//24 76//24
f 71//24 78//24 77//24
f 86//25 91//25 90//25
f 84//21 85//21 86//21
f 76//24 83//24 82//24
f 77//24 84//24 83//24
f 89//24 95//24 94//24
f 90//21 91//21 92//21
f 82//24 89//24 88//24
f 83//24 90//24 89//24
f 94//24 102//24 101//24
f 95//21 96//21 97//21
f 92//25 96//25 95//25
f 88//24 94//24 93//24
f 99//26 105//26 104//26
f 102//21 103//21 100//21
f 97//25 103//25 102//25
f 107//21 106//21 104//21
f 100//25 106//25 107//25
f 100//22 98//22 104//22
f 101//24 107//24 105//24
f 79//22 74//22 80//22
f 74//22 63//22 80//22
f 63//22 98//22 86//22
f 98//22 100//22 97//22
f 100//22 103//22 97//22
f 97//22 96//22 92//22
f 92//22 91//22 86//22
f 86//22 85//22 80//22
f 98//22 97//22 92//22
f 92//22 86//22 98//22
f 99//27 98//27 87//27
f 98//27 63//27 81//27
f 87//27 98//27 81//27
f 63//27 59//27 69//27
f 75//27 81//27 63//27
f 59//26 63//26 65//26
o Cube.003
v 0.819040 -0.449806 -0.691085
v 0.819040 0.449806 -0.691085
v 0.819040 -0.449806 0.415847
v 0.819040 0.449806 0.415847
v 0.939680 0.449806 -0.691085
v 0.939680 -0.449806 -0.691085
v 0.939680 0.449806 0.415847
v 0.939680 -0.449806 0.415847
vn -0.0000 -1.0000 -0.0000
vn -0.0000 -0.0000 -1.0000
vn -0.0000 1.0000 -0.0000
vn -0.0000 -0.0000 1.0000
vn 1.0000 -0.0000 -0.0000
vn -1.0000 -0.0000 -0.0000
s 0
f 113//28 110//28 108//28
f 112//29 108//29 109//29
f 114//30 109//30 111//30
f 115//31 111//31 110//31
f 112//32 115//32 113//32
f 110//33 109//33 108//33
f 113//28 115//28 110//28
f 112//29 113//29 108//29
f 114//30 112//30 109//30
f 115//31 114//31 111//31
f 112//32 114//32 115//32
f 110//33 111//33 109//33
o Cylinder
v -1.409900 0.876467 -3.209787
v -1.409900 0.876467 -1.000000
v -1.316568 0.857902 -3.209787
v -1.316568 0.857902 -1.000000
v -1.237445 0.805034 -3.209787
v -1.237445 0.805034 -1.000000
v -1.184577 0.725911 -3.209787
v -1.184577 0.725911 -1.000000
v -1.166012 0.632579 -3.209787
v -1.166012 0.632579 -1.000000
v -1.184577 0.539247 -3.209787
v -1.184577 0.539247 -1.000000
v -1.237445 0.460124 -3.209787
v -1.237445 0.460124 -1.000000
v -1.316568 0.407256 -3.209787
v -1.316568 0.407256 -1.000000
v -1.409900 0.388691 -3.209787
v -1.409900 0.388691 -1.000000
v -1.503231 0.407256 -3.209787
v -1.503231 0.407256 -1.000000
v -1.582354 0.460124 -3.209787
v -1.582354 0.460124 -1.000000
v -1.635223 0.539247 -3.209787
v -1.635223 0.539247 -1.000000
v -1.653787 0.632579 -3.209787
v -1.653787 0.632579 -1.000000
v -1.635223 0.725911 -3.209787
v -1.635223 0.725911 -1.000000
v -1.582354 0.805034 -3.209787
v -1.582354 0.805034 -1.000000
v -1.503231 0.857902 -3.209787
v -1.503231 0.857902 -1.000000
vn 0.1951 0.9808 -0.0000
vn 0.5556 0.8315 -0.0000
vn 0.8315 0.5556 -0.0000
vn 0.9808 0.1951 -0.0000
vn 0.9808 -0.1951 -0.0000
vn 0.8315 -0.5556 -0.0000
vn 0.5556 -0.8315 -0.0000
vn 0.1951 -0.9808 -0.0000
vn -0.1951 -0.9808 -0.0000
vn -0.5556 -0.8315 -0.0000
vn -0.8315 -0.5556 -0.0000
vn -0.9808 -0.1951 -0.0000
vn -0.9808 0.1951 -0.0000
vn -0.8315 0.5556 -0.0000
vn -0.0000 -0.0000 1.0000
vn -0.5556 0.8315 -0.0000
vn -0.1951 0.9808 -0.0000
vn -0.0000 -0.0000 -1.0000
s 0
f 117//34 118//34 116//34
f 119//35 120//35 118//35
f 121//36 122//36 120//36
f 123//37 124//37 122//37
f 125//38 126//38 124//38
f 127//39 128//39 126//39
f 129//40 130//40 128//40
f 131//41 132//41 130//41
f 132//42 135//42 134//42
f 134//43 137//43 136//43
f 137//44 138//44 136//44
f 139//45 140//45 138//45
f 141//46 142//46 140//46
f 143//47 144//47 142//47
f 121//48 145//48 137//48
f 145//49 146//49 144//49
f 147//50 116//50 146//50
f 130//51 138//51 146//51
f 117//34 119//34 118//34
f 119//35 121//35 120//35
f 121//36 123//36 122//36
f 123//37 125//37 124//37
f 125//38 127//38 126//38
f 127//39 129//39 128//39
f 129//40 131//40 130//40
f 131//41 133//41 132//41
f 132//42 133//42 135//42
f 134//43 135//43 137//43
f 137//44 139//44 138//44
f 139//45 141//45 140//45
f 141//46 143//46 142//46
f 143//47 145//47 144//47
f 121//48 119//48 117//48
f 117//48 147//48 121//48
f 147//48 145//48 121//48
f 145//48 143//48 141//48
f 141//48 139//48 145//48
f 139//48 137//48 145//48
f 137//48 135//48 129//48
f 135//48 133//48 129//48
f 133//48 131//48 129//48
f 129//48 127//48 125//48
f 125//48 123//48 121//48
f 129//48 125//48 137//48
f 125//48 121//48 137//48
f 145//49 147//49 146//49
f 147//50 117//50 116//50
f 146//51 116//51 118//51
f 118//51 120//51 146//51
f 120//51 122//51 146//51
f 122//51 124//51 130//51
f 124//51 126//51 130//51
f 126//51 128//51 130//51
f 130//51 132//51 134//51
f 134//51 136//51 138//51
f 138//51 140//51 142//51
f 142//51 144//51 146//51
f 130//51 134//51 138//51
f 138//51 142//51 146//51
f 146//51 122//51 130//51
